Coordinates
version=1
nRows=38
nColumns=12
inDegrees=yes

Units are S.I. units (second, meters, Newtons, ...)
Angles are in degrees

endheader
time	SC_y	SC_z	SC_x	AC_y	AC_z	AC_x	GH_y	GH_z	GH_yy	EL_x	PS_y
       0.0              -36.45           32.4          79.66          40.02         -17.15           18.9         -100.7            2.0         -73.78          44.92          10.52
   0.03844              -36.45           32.4          79.65          40.03         -17.15           18.9         -100.7          2.004         -73.77          44.93          10.53
   0.07687              -36.45           32.4          79.65          40.03         -17.15           18.9         -100.7          2.009         -73.75          44.94          10.54
    0.1153              -36.44           32.4          79.65          40.03         -17.14           18.9         -100.7          2.013         -73.74          44.96          10.55
    0.1537              -36.44          32.39          79.65          40.03         -17.14          18.89         -100.7          2.018         -73.72          44.97          10.56
    0.1922              -36.44          32.39          79.65          40.04         -17.14          18.89         -100.6          2.023          -73.7          44.98          10.58
    0.2306              -36.44          32.39          79.65          40.04         -17.14          18.89         -100.6          2.029         -73.68          44.99          10.59
     0.269              -36.43          32.38          79.64          40.05         -17.13          18.89         -100.6          2.035         -73.66          45.01          10.61
    0.3075              -36.43          32.38          79.64          40.05         -17.13          18.89         -100.5          2.041         -73.63          45.02          10.62
    0.3459              -36.43          32.37          79.64          40.06         -17.13          18.88         -100.5          2.048         -73.61          45.04          10.64
    0.3844              -36.42          32.37          79.64          40.06         -17.12          18.88         -100.5          2.055         -73.58          45.06          10.66
    0.4228              -36.42          32.37          79.63          40.07         -17.12          18.88         -100.4          2.063         -73.55          45.08          10.68
    0.4612              -36.41          32.36          79.63          40.07         -17.12          18.87         -100.4          2.071         -73.52           45.1           10.7
    0.4997              -36.41          32.35          79.63          40.08         -17.11          18.87         -100.3           2.08         -73.49          45.12          10.72
    0.5381               -36.4          32.35          79.63          40.09         -17.11          18.87         -100.3           2.09         -73.45          45.14          10.74
    0.5765               -36.4          32.34          79.62          40.09          -17.1          18.86         -100.2          2.101         -73.41          45.17          10.77
     0.615              -36.39          32.33          79.62           40.1          -17.1          18.86         -100.2          2.113         -73.37           45.2           10.8
    0.6534              -36.38          32.33          79.61          40.11         -17.09          18.85         -100.1          2.125         -73.32          45.23          10.83
    0.6918              -36.38          32.32          79.61          40.12         -17.08          18.85         -100.0          2.139         -73.27          45.26          10.87
    0.7303              -36.37          32.31           79.6          40.13         -17.07          18.84         -99.96          2.154         -73.21           45.3           10.9
    0.7687              -36.36           32.3           79.6          40.14         -17.07          18.84         -99.88          2.171         -73.15          45.34          10.95
    0.8071              -36.35          32.29          79.59          40.16         -17.06          18.83         -99.78          2.189         -73.08          45.38          10.99
    0.8456              -36.34          32.27          79.58          40.17         -17.05          18.82         -99.68          2.209         -73.01          45.43          11.04
     0.884              -36.32          32.26          79.58          40.19         -17.04          18.81         -99.57          2.232         -72.92          45.49           11.1
    0.9224              -36.31          32.24          79.57           40.2         -17.02          18.81         -99.44          2.257         -72.83          45.55          11.16
    0.9609               -36.3          32.22          79.56          40.22         -17.01           18.8          -99.3          2.284         -72.73          45.62          11.23
    0.9993              -36.28           32.2          79.55          40.25         -16.99          18.78         -99.14          2.315         -72.61          45.69          11.31
     1.038              -36.26          32.18          79.54          40.27         -16.98          18.77         -98.96           2.35         -72.48          45.78          11.39
     1.076              -36.24          32.16          79.52           40.3         -16.96          18.76         -98.76           2.39         -72.34          45.87          11.49
     1.115              -36.21          32.13          79.51          40.33         -16.94          18.74         -98.53          2.435         -72.17          45.98           11.6
     1.153              -36.19           32.1          79.49          40.37         -16.91          18.72         -98.27          2.486         -71.98          46.11          11.73
     1.191              -36.15          32.06          79.47          40.41         -16.88           18.7         -97.97          2.545         -71.76          46.25          11.88
      1.23              -36.12          32.02          79.45          40.46         -16.85          18.67         -97.63          2.613         -71.51          46.42          12.05
     1.268              -36.07          31.97          79.42          40.51         -16.81          18.64         -97.23          2.692         -71.22          46.61          12.24
     1.307              -36.02          31.91          79.39          40.58         -16.76          18.61         -96.76          2.784         -70.87          46.83          12.47
     1.345              -35.96          31.84          79.35          40.65         -16.71          18.57          -96.2          2.893         -70.47           47.1          12.75
     1.384              -35.89          31.76          79.31          40.75         -16.64          18.52         -95.54          3.022         -69.99          47.41          13.07
     1.422              -35.81          31.66          79.25          40.85         -16.57          18.46         -94.75          3.178         -69.41          47.79          13.45
